<svg width="24" height="25" viewBox="0 0 24 25" fill="none" xmlns="http://www.w3.org/2000/svg">
<path d="M16.4557 22.296C16.962 22.296 17.5696 22.1959 18.0759 21.8957C19.2911 21.2953 20 20.1945 20 18.8936V5.68412C20 4.3832 19.2911 3.28241 18.0759 2.68198C16.8608 2.08155 15.3418 2.18162 14.2278 2.98219L5.41772 9.58691C4.50633 10.2874 4 11.1881 4 12.2888C4 13.3896 4.50633 14.3903 5.41772 14.9908L14.2278 21.5955C14.8354 22.0958 15.6456 22.296 16.4557 22.296ZM16.4557 4.28312C16.6582 4.28312 16.962 4.3832 17.1646 4.48327C17.6709 4.68341 17.9747 5.18377 17.9747 5.68412V18.7935C17.9747 19.2938 17.6709 19.7942 17.1646 20.0944C16.7595 20.2946 16.0506 20.3946 15.443 19.8943L6.63291 13.2896C6.22785 12.9893 6.02532 12.5891 6.02532 12.1888C6.02532 11.7885 6.22785 11.3882 6.63291 11.088L15.443 4.58334C15.7468 4.38319 16.0506 4.28312 16.4557 4.28312Z" fill="black"/>
</svg>
