<svg width="30" height="30" viewBox="0 0 30 30" fill="none" xmlns="http://www.w3.org/2000/svg">
<g filter="url(#filter0_d_177_300)">
<path d="M5 16.2988C4.4 16.2988 4 15.8988 4 15.2988V9.2988C4 8.6988 4.4 8.2988 5 8.2988C5.6 8.2988 6 8.6988 6 9.2988V15.2988C6 15.8988 5.6 16.2988 5 16.2988Z" fill="noFill"/>
<path d="M9 18.2988C8.4 18.2988 8 17.8988 8 17.2988V7.2988C8 6.6988 8.4 6.2988 9 6.2988C9.6 6.2988 10 6.6988 10 7.2988V17.2988C10 17.8988 9.6 18.2988 9 18.2988Z" fill="noFill"/>
<path d="M15.1 21.3016C14.6 21.3016 14.2 21.2016 13.7 21.0016C12.6 20.5016 12 19.4016 12 18.2016V6.40161C12 5.20161 12.7 4.20161 13.8 3.60161C14.9 3.10161 16.2 3.20161 17.1 4.00161L24.4 9.90161C25.1 10.5016 25.5 11.3016 25.5 12.3016C25.5 13.2016 25.1 14.1016 24.4 14.7016L17.1 20.6016C16.5 21.1016 15.8 21.3016 15.1 21.3016Z" fill="noFill"/>
</g>
<defs>
<filter id="filter0_d_177_300" x="-1" y="0.29599" width="31.5" height="32.0056" filterUnits="userSpaceOnUse" color-interpolation-filters="sRGB">
<feFlood flood-opacity="0" result="BackgroundImageFix"/>
<feColorMatrix in="SourceAlpha" type="matrix" values="0 0 0 0 0 0 0 0 0 0 0 0 0 0 0 0 0 0 127 0" result="hardAlpha"/>
<feOffset dy="4"/>
<feGaussianBlur stdDeviation="2"/>
<feComposite in2="hardAlpha" operator="out"/>
<feColorMatrix type="matrix" values="0 0 0 0 0 0 0 0 0 0 0 0 0 0 0 0 0 0 0.25 0"/>
<feBlend mode="normal" in2="BackgroundImageFix" result="effect1_dropShadow_177_300"/>
<feBlend mode="normal" in="SourceGraphic" in2="effect1_dropShadow_177_300" result="shape"/>
</filter>
</defs>
</svg>
